<svg xmlns="http://www.w3.org/2000/svg" xmlns:svg="http://www.w3.org/2000/svg" id="svg247" width="328pt" height="602pt" version="1.1" viewBox="0 0 328 602"><metadata id="metadata253"/><g id="graph0" class="graph" transform="translate(4,598)"><title id="title2">GossipGraph</title><polygon id="polygon4" stroke="transparent" points="-4 -598 324 -598 324 4 -4 4" style="fill:#fff"/><text id="text6" x="160" y="-578.8" font-size="14" style="font-size:14px;font-family:Times,serif;text-anchor:middle;fill:#000">b_0 is seen by d_4:</text><text id="text8" x="160" y="-563.8" font-size="14" style="font-size:14px;font-family:Times,serif;text-anchor:middle;fill:#000">There is at least one directed path from b_0 to d_4</text><g id="clust1" class="cluster"><title id="title10">cluster_alice</title></g><g id="clust2" class="cluster"><title id="title13">cluster_bob</title></g><g id="clust3" class="cluster"><title id="title16">cluster_carol</title></g><g id="clust4" class="cluster"><title id="title19">cluster_dave</title></g><g id="node1" class="node"><title id="title22">alice</title><ellipse id="ellipse24" cx="46" cy="-18" rx="27.097" ry="18" style="fill:#fff;stroke:#fff"/><text id="text26" x="46" y="-14.3" font-size="14" style="font-size:14px;font-family:Times,serif;text-anchor:middle;fill:#000">alice</text></g><g id="node2" class="node"><title id="title29">a_0</title><ellipse id="ellipse31" cx="43" cy="-90" rx="27" ry="18" style="fill:none;stroke:#000"/><text id="text33" x="43" y="-86.3" font-size="14" style="font-size:14px;font-family:Times,serif;text-anchor:middle;fill:#000">a_0</text></g><g id="node5" class="node"><title id="title36">bob</title><polygon id="polygon38" points="148 0 148 -36 94 -36 94 0" style="fill:#add8e6;stroke:#fff"/><text id="text40" x="121" y="-14.3" font-size="14" style="font-size:14px;font-family:Times,serif;text-anchor:middle;fill:#000">bob</text></g><g id="node3" class="node"><title id="title43">a_1</title><ellipse id="ellipse45" cx="43" cy="-306" rx="27" ry="18" style="fill:none;stroke:#000"/><text id="text47" x="43" y="-302.3" font-size="14" style="font-size:14px;font-family:Times,serif;text-anchor:middle;fill:#000">a_1</text></g><g id="edge2" class="edge"><title id="title50">a_0-&gt;a_1</title><path id="path52" d="m 43,-108.0445 c 0,-37.5617 0,-124.4014 0,-169.5452" style="fill:none;stroke:#000"/><polygon id="polygon54" points="43 -287.855 46.5 -277.855 39.5 -277.855" style="fill:#000;stroke:#000"/></g><g id="node4" class="node"><title id="title57">a_2</title><ellipse id="ellipse59" cx="43" cy="-522" rx="27" ry="18" style="fill:none;stroke:#000"/><text id="text61" x="43" y="-518.3" font-size="14" style="font-size:14px;font-family:Times,serif;text-anchor:middle;fill:#000">a_2</text></g><g id="edge3" class="edge"><title id="title64">a_1-&gt;a_2</title><path id="path66" d="m 43,-324.0445 c 0,-37.5617 0,-124.4014 0,-169.5452" style="fill:none;stroke:#000"/><polygon id="polygon68" points="43 -503.855 46.5 -493.855 39.5 -493.855" style="fill:#000;stroke:#000"/></g><g id="node16" class="node"><title id="title71">d_4</title><ellipse id="ellipse73" cx="277" cy="-450" rx="27" ry="18" style="fill:#add8e6;stroke:#000"/><text id="text75" x="277" y="-446.3" font-size="14" style="font-size:14px;font-family:Times,serif;text-anchor:middle;fill:#000">d_4</text></g><g id="edge16" class="edge"><title id="title78">a_1-&gt;d_4</title><path id="path80" d="m 62.9507,-318.2774 c 41.5325,-25.5584 137.4035,-84.556 185.4771,-114.1397" style="fill:none;stroke:#000"/><polygon id="polygon82" points="257.1 -437.754 250.417 -429.532 246.749 -435.493" style="fill:#000;stroke:#000"/></g><g id="node6" class="node"><title id="title85">b_0</title><ellipse id="ellipse87" cx="121" cy="-90" rx="27" ry="18" style="fill:#add8e6;stroke:#000"/><text id="text89" x="121" y="-86.3" font-size="14" style="font-size:14px;font-family:Times,serif;text-anchor:middle;fill:#000">b_0</text></g><g id="node9" class="node"><title id="title92">carol</title><ellipse id="ellipse94" cx="199" cy="-18" rx="28.695" ry="18" style="fill:#fff;stroke:#fff"/><text id="text96" x="199" y="-14.3" font-size="14" style="font-size:14px;font-family:Times,serif;text-anchor:middle;fill:#000">carol</text></g><g id="node7" class="node"><title id="title99">b_1</title><ellipse id="ellipse101" cx="121" cy="-234" rx="27" ry="18" style="fill:#add8e6;stroke:#000"/><text id="text103" x="121" y="-230.3" font-size="14" style="font-size:14px;font-family:Times,serif;text-anchor:middle;fill:#000">b_1</text></g><g id="edge5" class="edge"><title id="title106">b_0-&gt;b_1</title><path id="path108" d="m 121,-108.2377 c 0,-24.5613 0,-68.5149 0,-97.4082" style="fill:none;stroke:#00f;stroke-width:2"/><polygon id="polygon110" points="121 -215.91 124.5 -205.91 117.5 -205.91" style="fill:#00f;stroke:#00f;stroke-width:2"/></g><g id="node13" class="node"><title id="title113">d_1</title><ellipse id="ellipse115" cx="277" cy="-162" rx="27" ry="18" style="fill:none;stroke:#000"/><text id="text117" x="277" y="-158.3" font-size="14" style="font-size:14px;font-family:Times,serif;text-anchor:middle;fill:#000">d_1</text></g><g id="edge17" class="edge"><title id="title120">b_0-&gt;d_1</title><path id="path122" d="m 143.351,-100.3158 c 26.7595,-12.3506 71.7525,-33.1166 102.0579,-47.1037" style="fill:none;stroke:#000"/><polygon id="polygon124" points="254.69 -151.703 247.078 -144.335 244.144 -150.69" style="fill:#000;stroke:#000"/></g><g id="edge18" class="edge"><title id="title127">b_1-&gt;a_1</title><path id="path129" d="M 104.8383,-248.9184 C 93.6786,-259.2198 78.6666,-273.077 66.2285,-284.5583" style="fill:none;stroke:#000"/><polygon id="polygon131" points="58.874 -291.347 68.596 -287.136 63.848 -281.992" style="fill:#000;stroke:#000"/></g><g id="node8" class="node"><title id="title134">b_2</title><ellipse id="ellipse136" cx="121" cy="-306" rx="27" ry="18" style="fill:#add8e6;stroke:#000"/><text id="text138" x="121" y="-302.3" font-size="14" style="font-size:14px;font-family:Times,serif;text-anchor:middle;fill:#000">b_2</text></g><g id="edge6" class="edge"><title id="title141">b_1-&gt;b_2</title><path id="path143" d="m 121,-252.1686 c 0,-7.7004 0,-16.8571 0,-25.4148" style="fill:none;stroke:#00f;stroke-width:2"/><polygon id="polygon145" points="121 -287.587 124.5 -277.587 117.5 -277.587" style="fill:#00f;stroke:#00f;stroke-width:2"/></g><g id="node14" class="node"><title id="title148">d_2</title><ellipse id="ellipse150" cx="277" cy="-306" rx="27" ry="18" style="fill:none;stroke:#000"/><text id="text152" x="277" y="-302.3" font-size="14" style="font-size:14px;font-family:Times,serif;text-anchor:middle;fill:#000">d_2</text></g><g id="edge19" class="edge"><title id="title155">b_1-&gt;d_2</title><path id="path157" d="m 143.351,-244.3158 c 26.7595,-12.3506 71.7525,-33.1166 102.0579,-47.1037" style="fill:none;stroke:#000"/><polygon id="polygon159" points="254.69 -295.703 247.078 -288.335 244.144 -294.69" style="fill:#000;stroke:#000"/></g><g id="node15" class="node"><title id="title162">d_3</title><ellipse id="ellipse164" cx="277" cy="-378" rx="27" ry="18" style="fill:#add8e6;stroke:#000"/><text id="text166" x="277" y="-374.3" font-size="14" style="font-size:14px;font-family:Times,serif;text-anchor:middle;fill:#000">d_3</text></g><g id="edge20" class="edge"><title id="title169">b_2-&gt;d_3</title><path id="path171" d="m 143.351,-316.3158 c 26.7595,-12.3506 71.7525,-33.1166 102.0579,-47.1037" style="fill:none;stroke:#00f;stroke-width:2"/><polygon id="polygon173" points="254.69 -367.703 247.078 -360.335 244.144 -366.69" style="fill:#00f;stroke:#00f;stroke-width:2"/></g><g id="node10" class="node"><title id="title176">c_0</title><ellipse id="ellipse178" cx="199" cy="-90" rx="27" ry="18" style="fill:none;stroke:#000"/><text id="text180" x="199" y="-86.3" font-size="14" style="font-size:14px;font-family:Times,serif;text-anchor:middle;fill:#000">c_0</text></g><g id="node11" class="node"><title id="title183">dave</title><polygon id="polygon185" points="302 0 302 -36 248 -36 248 0" style="fill:#add8e6;stroke:#fff"/><text id="text187" x="275" y="-14.3" font-size="14" style="font-size:14px;font-family:Times,serif;text-anchor:middle;fill:#000">dave</text></g><g id="edge21" class="edge"><title id="title190">c_0-&gt;b_2</title><path id="path192" d="m 192.6169,-107.6762 c -13.6032,-37.6704 -45.528,-126.0777 -61.7629,-171.0357" style="fill:none;stroke:#000"/><polygon id="polygon194" points="127.362 -288.382 134.05 -280.166 127.466 -277.788" style="fill:#000;stroke:#000"/></g><g id="node12" class="node"><title id="title197">d_0</title><ellipse id="ellipse199" cx="277" cy="-90" rx="27" ry="18" style="fill:none;stroke:#000"/><text id="text201" x="277" y="-86.3" font-size="14" style="font-size:14px;font-family:Times,serif;text-anchor:middle;fill:#000">d_0</text></g><g id="edge9" class="edge"><title id="title204">d_0-&gt;d_1</title><path id="path206" d="m 277,-108.1686 c 0,-7.7004 0,-16.8571 0,-25.4148" style="fill:none;stroke:#000"/><polygon id="polygon208" points="277 -143.587 280.5 -133.587 273.5 -133.587" style="fill:#000;stroke:#000"/></g><g id="edge22" class="edge"><title id="title211">d_1-&gt;b_1</title><path id="path213" d="m 254.649,-172.3158 c -26.7595,-12.3506 -71.7525,-33.1166 -102.0579,-47.1037" style="fill:none;stroke:#000"/><polygon id="polygon215" points="143.31 -223.703 153.856 -222.69 150.922 -216.335" style="fill:#000;stroke:#000"/></g><g id="edge10" class="edge"><title id="title218">d_1-&gt;d_2</title><path id="path220" d="m 277,-180.2377 c 0,-24.5613 0,-68.5149 0,-97.4082" style="fill:none;stroke:#000"/><polygon id="polygon222" points="277 -287.91 280.5 -277.91 273.5 -277.91" style="fill:#000;stroke:#000"/></g><g id="edge11" class="edge"><title id="title225">d_2-&gt;d_3</title><path id="path227" d="m 277,-324.1686 c 0,-7.7004 0,-16.8571 0,-25.4148" style="fill:none;stroke:#000"/><polygon id="polygon229" points="277 -359.587 280.5 -349.587 273.5 -349.587" style="fill:#000;stroke:#000"/></g><g id="edge12" class="edge"><title id="title232">d_3-&gt;d_4</title><path id="path234" d="m 277,-396.1686 c 0,-7.7004 0,-16.8571 0,-25.4148" style="fill:none;stroke:#00f;stroke-width:2"/><polygon id="polygon236" points="277 -431.587 280.5 -421.587 273.5 -421.587" style="fill:#00f;stroke:#00f;stroke-width:2"/></g><g id="edge23" class="edge"><title id="title239">d_4-&gt;a_2</title><path id="path241" d="M 252.4002,-457.5692 C 210.443,-470.4791 124.9599,-496.7816 77.2089,-511.4742" style="fill:none;stroke:#000"/><polygon id="polygon243" points="67.621 -514.424 78.209 -514.828 76.15 -508.138" style="fill:#000;stroke:#000"/></g></g></svg>