<svg xmlns="http://www.w3.org/2000/svg" xmlns:xlink="http://www.w3.org/1999/xlink" width="328pt" height="617pt" viewBox="0 0 328 617"><g id="page0,1_graph0" class="graph" transform="scale(1 1) rotate(0) translate(4 613)"><title>GossipGraph</title><polygon fill="#fff" stroke="transparent" points="-4 4 -4 -613 324 -613 324 4 -4 4"/><text x="160" y="-593.8" fill="#000" font-family="Times,serif" font-size="14" text-anchor="middle">b_0 is strongly seen by a_1:</text><text x="160" y="-578.8" fill="#000" font-family="Times,serif" font-size="14" text-anchor="middle">It is seen via multiple directed paths passing</text><text x="160" y="-563.8" fill="#000" font-family="Times,serif" font-size="14" text-anchor="middle">through a supermajority (3 out of 4) of the nodes</text><g id="clust2" class="cluster"><title>cluster_bob</title></g><g id="clust3" class="cluster"><title>cluster_carol</title></g><g id="clust4" class="cluster"><title>cluster_dave</title></g><g id="clust1" class="cluster"><title>cluster_alice</title></g><g id="node1" class="node"><title>alice</title><polygon fill="#add8e6" stroke="#fff" points="73 -36 19 -36 19 0 73 0 73 -36"/><text x="46" y="-14.3" fill="#000" font-family="Times,serif" font-size="14" text-anchor="middle">alice</text></g><g id="node2" class="node"><title>a_0</title><ellipse cx="43" cy="-90" fill="none" stroke="#000" rx="27" ry="18"/><text x="43" y="-86.3" fill="#000" font-family="Times,serif" font-size="14" text-anchor="middle">a_0</text></g><g id="node5" class="node"><title>bob</title><polygon fill="#add8e6" stroke="#fff" points="148 -36 94 -36 94 0 148 0 148 -36"/><text x="121" y="-14.3" fill="#000" font-family="Times,serif" font-size="14" text-anchor="middle">bob</text></g><g id="node3" class="node"><title>a_1</title><ellipse cx="43" cy="-306" fill="#add8e6" stroke="#000" rx="27" ry="18"/><text x="43" y="-302.3" fill="#000" font-family="Times,serif" font-size="14" text-anchor="middle">a_1</text></g><g id="edge2" class="edge"><title>a_0-&gt;a_1</title><path fill="none" stroke="#000" d="M43,-108.0445C43,-145.6062 43,-232.4459 43,-277.5897"/><polygon fill="#000" stroke="#000" points="39.5 -277.855 43 -287.855 46.5 -277.855 39.5 -277.855"/></g><g id="node4" class="node"><title>a_2</title><ellipse cx="43" cy="-522" fill="none" stroke="#000" rx="27" ry="18"/><text x="43" y="-518.3" fill="#000" font-family="Times,serif" font-size="14" text-anchor="middle">a_2</text></g><g id="edge3" class="edge"><title>a_1-&gt;a_2</title><path fill="none" stroke="#000" d="M43,-324.0445C43,-361.6062 43,-448.4459 43,-493.5897"/><polygon fill="#000" stroke="#000" points="39.5 -493.855 43 -503.855 46.5 -493.855 39.5 -493.855"/></g><g id="node16" class="node"><title>d_4</title><ellipse cx="277" cy="-450" fill="none" stroke="#000" rx="27" ry="18"/><text x="277" y="-446.3" fill="#000" font-family="Times,serif" font-size="14" text-anchor="middle">d_4</text></g><g id="edge16" class="edge"><title>a_1-&gt;d_4</title><path fill="none" stroke="#000" d="M62.9507,-318.2774C104.4832,-343.8358 200.3542,-402.8334 248.4278,-432.4171"/><polygon fill="#000" stroke="#000" points="246.749 -435.493 257.1 -437.754 250.417 -429.532 246.749 -435.493"/></g><g id="node6" class="node"><title>b_0</title><ellipse cx="121" cy="-90" fill="#add8e6" stroke="#000" rx="27" ry="18"/><text x="121" y="-86.3" fill="#000" font-family="Times,serif" font-size="14" text-anchor="middle">b_0</text></g><g id="node9" class="node"><title>carol</title><ellipse cx="199" cy="-18" fill="#fff" stroke="#fff" rx="28.695" ry="18"/><text x="199" y="-14.3" fill="#000" font-family="Times,serif" font-size="14" text-anchor="middle">carol</text></g><g id="node7" class="node"><title>b_1</title><ellipse cx="121" cy="-234" fill="#add8e6" stroke="#000" rx="27" ry="18"/><text x="121" y="-230.3" fill="#000" font-family="Times,serif" font-size="14" text-anchor="middle">b_1</text></g><g id="edge5" class="edge"><title>b_0-&gt;b_1</title><path fill="none" stroke="#00f" stroke-width="2" d="M121,-108.2377C121,-132.799 121,-176.7526 121,-205.6459"/><polygon fill="#00f" stroke="#00f" stroke-width="2" points="117.5 -205.91 121 -215.91 124.5 -205.91 117.5 -205.91"/></g><g id="node13" class="node"><title>d_1</title><ellipse cx="277" cy="-162" fill="#add8e6" stroke="#000" rx="27" ry="18"/><text x="277" y="-158.3" fill="#000" font-family="Times,serif" font-size="14" text-anchor="middle">d_1</text></g><g id="edge17" class="edge"><title>b_0-&gt;d_1</title><path fill="none" stroke="#00f" stroke-width="2" d="M143.351,-100.3158C170.1105,-112.6664 215.1035,-133.4324 245.4089,-147.4195"/><polygon fill="#00f" stroke="#00f" stroke-width="2" points="244.144 -150.69 254.69 -151.703 247.078 -144.335 244.144 -150.69"/></g><g id="edge18" class="edge"><title>b_1-&gt;a_1</title><path fill="none" stroke="#00f" stroke-width="2" d="M104.8383,-248.9184C93.6786,-259.2198 78.6666,-273.077 66.2285,-284.5583"/><polygon fill="#00f" stroke="#00f" stroke-width="2" points="63.848 -281.992 58.874 -291.347 68.596 -287.136 63.848 -281.992"/></g><g id="node8" class="node"><title>b_2</title><ellipse cx="121" cy="-306" fill="none" stroke="#000" rx="27" ry="18"/><text x="121" y="-302.3" fill="#000" font-family="Times,serif" font-size="14" text-anchor="middle">b_2</text></g><g id="edge6" class="edge"><title>b_1-&gt;b_2</title><path fill="none" stroke="#000" d="M121,-252.1686C121,-259.869 121,-269.0257 121,-277.5834"/><polygon fill="#000" stroke="#000" points="117.5 -277.587 121 -287.587 124.5 -277.587 117.5 -277.587"/></g><g id="node14" class="node"><title>d_2</title><ellipse cx="277" cy="-306" fill="none" stroke="#000" rx="27" ry="18"/><text x="277" y="-302.3" fill="#000" font-family="Times,serif" font-size="14" text-anchor="middle">d_2</text></g><g id="edge19" class="edge"><title>b_1-&gt;d_2</title><path fill="none" stroke="#000" d="M143.351,-244.3158C170.1105,-256.6664 215.1035,-277.4324 245.4089,-291.4195"/><polygon fill="#000" stroke="#000" points="244.144 -294.69 254.69 -295.703 247.078 -288.335 244.144 -294.69"/></g><g id="node15" class="node"><title>d_3</title><ellipse cx="277" cy="-378" fill="none" stroke="#000" rx="27" ry="18"/><text x="277" y="-374.3" fill="#000" font-family="Times,serif" font-size="14" text-anchor="middle">d_3</text></g><g id="edge20" class="edge"><title>b_2-&gt;d_3</title><path fill="none" stroke="#000" d="M143.351,-316.3158C170.1105,-328.6664 215.1035,-349.4324 245.4089,-363.4195"/><polygon fill="#000" stroke="#000" points="244.144 -366.69 254.69 -367.703 247.078 -360.335 244.144 -366.69"/></g><g id="node10" class="node"><title>c_0</title><ellipse cx="199" cy="-90" fill="none" stroke="#000" rx="27" ry="18"/><text x="199" y="-86.3" fill="#000" font-family="Times,serif" font-size="14" text-anchor="middle">c_0</text></g><g id="node11" class="node"><title>dave</title><polygon fill="#add8e6" stroke="#fff" points="302 -36 248 -36 248 0 302 0 302 -36"/><text x="275" y="-14.3" fill="#000" font-family="Times,serif" font-size="14" text-anchor="middle">dave</text></g><g id="edge21" class="edge"><title>c_0-&gt;b_2</title><path fill="none" stroke="#000" d="M192.6169,-107.6762C179.0137,-145.3466 147.0889,-233.7539 130.854,-278.7119"/><polygon fill="#000" stroke="#000" points="127.466 -277.788 127.362 -288.382 134.05 -280.166 127.466 -277.788"/></g><g id="node12" class="node"><title>d_0</title><ellipse cx="277" cy="-90" fill="none" stroke="#000" rx="27" ry="18"/><text x="277" y="-86.3" fill="#000" font-family="Times,serif" font-size="14" text-anchor="middle">d_0</text></g><g id="edge9" class="edge"><title>d_0-&gt;d_1</title><path fill="none" stroke="#000" d="M277,-108.1686C277,-115.869 277,-125.0257 277,-133.5834"/><polygon fill="#000" stroke="#000" points="273.5 -133.587 277 -143.587 280.5 -133.587 273.5 -133.587"/></g><g id="edge22" class="edge"><title>d_1-&gt;b_1</title><path fill="none" stroke="#00f" stroke-width="2" d="M254.649,-172.3158C227.8895,-184.6664 182.8965,-205.4324 152.5911,-219.4195"/><polygon fill="#00f" stroke="#00f" stroke-width="2" points="150.922 -216.335 143.31 -223.703 153.856 -222.69 150.922 -216.335"/></g><g id="edge10" class="edge"><title>d_1-&gt;d_2</title><path fill="none" stroke="#000" d="M277,-180.2377C277,-204.799 277,-248.7526 277,-277.6459"/><polygon fill="#000" stroke="#000" points="273.5 -277.91 277 -287.91 280.5 -277.91 273.5 -277.91"/></g><g id="edge11" class="edge"><title>d_2-&gt;d_3</title><path fill="none" stroke="#000" d="M277,-324.1686C277,-331.869 277,-341.0257 277,-349.5834"/><polygon fill="#000" stroke="#000" points="273.5 -349.587 277 -359.587 280.5 -349.587 273.5 -349.587"/></g><g id="edge12" class="edge"><title>d_3-&gt;d_4</title><path fill="none" stroke="#000" d="M277,-396.1686C277,-403.869 277,-413.0257 277,-421.5834"/><polygon fill="#000" stroke="#000" points="273.5 -421.587 277 -431.587 280.5 -421.587 273.5 -421.587"/></g><g id="edge23" class="edge"><title>d_4-&gt;a_2</title><path fill="none" stroke="#000" d="M252.4002,-457.5692C210.443,-470.4791 124.9599,-496.7816 77.2089,-511.4742"/><polygon fill="#000" stroke="#000" points="76.15 -508.138 67.621 -514.424 78.209 -514.828 76.15 -508.138"/></g></g></svg>